<svg width="16" height="16" viewBox="0 0 16 16" fill="none" xmlns="http://www.w3.org/2000/svg">
<path d="M9.3507 5.35687L3.7507 10.8569C3.65718 10.9489 3.53125 11.0004 3.40007 11.0004C3.2689 11.0004 3.14297 10.9489 3.04945 10.8569L0.64945 8.49999C0.602625 8.45395 0.565328 8.39913 0.539689 8.33867C0.514049 8.27822 0.500569 8.2133 0.500018 8.14763C0.499466 8.08196 0.511855 8.01683 0.536475 7.95595C0.561096 7.89507 0.597467 7.83963 0.643512 7.79281C0.689557 7.74598 0.744374 7.70868 0.804832 7.68305C0.865291 7.65741 0.930208 7.64393 0.995876 7.64337C1.06154 7.64282 1.12668 7.65521 1.18756 7.67983C1.24844 7.70445 1.30388 7.74082 1.3507 7.78687L3.40007 9.79937L8.65007 4.64312C8.74472 4.55013 8.87244 4.49854 9.00512 4.49972C9.07082 4.5003 9.13576 4.51381 9.19623 4.53949C9.25671 4.56517 9.31153 4.6025 9.35757 4.64937C9.40362 4.69623 9.43998 4.75171 9.46459 4.81263C9.48919 4.87355 9.50156 4.93872 9.50098 5.00441C9.5004 5.07011 9.48688 5.13505 9.4612 5.19552C9.43553 5.256 9.39819 5.31082 9.35132 5.35687H9.3507ZM15.3569 4.64937C15.3109 4.60247 15.2561 4.5651 15.1956 4.5394C15.1352 4.5137 15.0702 4.50017 15.0045 4.49959C14.9388 4.49901 14.8736 4.51139 14.8127 4.53602C14.7518 4.56064 14.6963 4.59704 14.6494 4.64312L9.39945 9.79937L8.22257 8.64312C8.12793 8.55021 8.00025 8.49871 7.86762 8.49994C7.735 8.50117 7.6083 8.55503 7.51539 8.64968C7.42248 8.74433 7.37097 8.87201 7.37221 9.00463C7.37344 9.13726 7.4273 9.26396 7.52195 9.35687L9.04882 10.8569C9.14234 10.9489 9.26827 11.0004 9.39945 11.0004C9.53063 11.0004 9.65655 10.9489 9.75007 10.8569L15.3501 5.35687C15.397 5.31089 15.4344 5.2561 15.4602 5.19565C15.4859 5.13519 15.4995 5.07025 15.5002 5.00454C15.5008 4.93884 15.4885 4.87364 15.4639 4.8127C15.4393 4.75176 15.403 4.69626 15.3569 4.64937Z" fill="#1D2933"/>
</svg>
