<svg width="16" height="16" viewBox="0 0 16 16" fill="none" xmlns="http://www.w3.org/2000/svg">
<path d="M13.8547 12.7356L9.99904 6.3075V2.75H10.499C10.6316 2.75 10.7588 2.69732 10.8526 2.60355C10.9464 2.50979 10.999 2.38261 10.999 2.25C10.999 2.11739 10.9464 1.99021 10.8526 1.89645C10.7588 1.80268 10.6316 1.75 10.499 1.75H5.49904C5.36643 1.75 5.23925 1.80268 5.14548 1.89645C5.05172 1.99021 4.99904 2.11739 4.99904 2.25C4.99904 2.38261 5.05172 2.50979 5.14548 2.60355C5.23925 2.69732 5.36643 2.75 5.49904 2.75H5.99904V6.3075L2.14341 12.7356C2.05248 12.8872 2.00336 13.0602 2.00106 13.237C1.99876 13.4138 2.04337 13.588 2.13033 13.7419C2.2173 13.8958 2.34351 14.0239 2.49611 14.1132C2.64872 14.2025 2.82225 14.2497 2.99904 14.25H12.999C13.176 14.25 13.3498 14.203 13.5026 14.1139C13.6555 14.0248 13.782 13.8967 13.8692 13.7427C13.9563 13.5888 14.0011 13.4144 13.9989 13.2375C13.9967 13.0605 13.9476 12.8874 13.8565 12.7356H13.8547ZM6.92779 6.70312C6.97455 6.62561 6.99919 6.53678 6.99904 6.44625V2.75H8.99904V6.44625C8.99888 6.53678 9.02352 6.62561 9.07029 6.70312L11.459 10.6875C10.709 10.8356 9.64216 10.7731 8.22466 10.0556C7.23029 9.5525 6.28404 9.28562 5.39841 9.255L6.92779 6.70312ZM2.99904 13.25L4.78279 10.2762C5.67341 10.1675 6.67716 10.3919 7.77154 10.9462C8.95904 11.5469 9.95904 11.7513 10.7715 11.7513C11.1848 11.7531 11.5962 11.6963 11.9934 11.5825L12.999 13.25H2.99904Z" fill="#F54A00"/>
</svg>
