<svg width="16" height="16" viewBox="0 0 16 16" fill="none" xmlns="http://www.w3.org/2000/svg">
<path d="M12.2569 7.99991C13.7975 5.83678 14.5832 3.60116 13.4907 2.50866C12.3982 1.41616 10.1625 2.20178 7.99942 3.74241C5.83629 2.20178 3.60067 1.41616 2.50817 2.50866C1.41567 3.60116 2.20129 5.83678 3.74192 7.99991C2.20129 10.163 1.41567 12.3987 2.50817 13.4912C2.86004 13.843 3.33004 13.9999 3.87754 13.9999C5.03254 13.9999 6.53255 13.3018 8.00255 12.2574C9.4663 13.3018 10.9663 13.9999 12.1244 13.9999C12.6719 13.9999 13.1425 13.8424 13.4938 13.4912C14.5832 12.3987 13.7975 10.163 12.2569 7.99991ZM12.7838 3.21553C13.2613 3.69303 12.9388 5.24053 11.6263 7.17053C11.2111 6.65652 10.769 6.1648 10.3019 5.69741C9.83448 5.23097 9.34276 4.78952 8.8288 4.37491C10.7588 3.06241 12.3063 2.73741 12.7838 3.21553ZM11.0175 7.99991C10.5753 8.55939 10.1003 9.09219 9.59505 9.59553C9.0917 10.1008 8.5589 10.5758 7.99942 11.018C7.43994 10.5758 6.90714 10.1008 6.40379 9.59553C5.89856 9.09219 5.42356 8.55939 4.98129 7.99991C5.86861 6.88176 6.88127 5.8691 7.99942 4.98178C8.5589 5.42405 9.0917 5.89905 9.59505 6.40428C10.1003 6.90762 10.5753 7.44043 11.0175 7.99991ZM3.21504 3.21553C3.35254 3.07741 3.57942 3.00616 3.87879 3.00616C4.61754 3.00616 5.79692 3.43741 7.16942 4.37491C6.65594 4.78986 6.16444 5.23129 5.69692 5.69741C5.23048 6.16484 4.78903 6.65657 4.37442 7.17053C3.06192 5.24053 2.73754 3.69303 3.21504 3.21553ZM3.21504 12.7843C2.73754 12.3068 3.06192 10.7593 4.37442 8.82928C4.78964 9.34329 5.23172 9.83502 5.69879 10.3024C6.16593 10.7685 6.65701 11.2099 7.17004 11.6249C5.24004 12.9374 3.69254 13.2624 3.21504 12.7843ZM12.7838 12.7843C12.3063 13.2624 10.7588 12.9393 8.8288 11.6268C9.34252 11.2112 9.83423 10.7692 10.3019 10.3024C10.7684 9.83497 11.2098 9.34325 11.6244 8.82928C12.9369 10.7593 13.2613 12.3068 12.7838 12.7843ZM8.74942 7.99991C8.74942 8.14824 8.70543 8.29325 8.62302 8.41658C8.54061 8.53992 8.42348 8.63605 8.28643 8.69282C8.14939 8.74958 7.99859 8.76444 7.8531 8.7355C7.70762 8.70656 7.57398 8.63513 7.46909 8.53024C7.3642 8.42535 7.29277 8.29171 7.26383 8.14622C7.23489 8.00074 7.24974 7.84994 7.30651 7.71289C7.36328 7.57585 7.45941 7.45872 7.58274 7.37631C7.70608 7.29389 7.85108 7.24991 7.99942 7.24991C8.19833 7.24991 8.3891 7.32893 8.52975 7.46958C8.6704 7.61023 8.74942 7.801 8.74942 7.99991Z" fill="#009966"/>
</svg>
