<svg width="16" height="16" viewBox="0 0 16 16" fill="none" xmlns="http://www.w3.org/2000/svg">
<path d="M7 4.25016C7 4.38276 6.94732 4.50994 6.85355 4.60371C6.75979 4.69748 6.63261 4.75016 6.5 4.75016H2.5C2.36739 4.75016 2.24021 4.69748 2.14645 4.60371C2.05268 4.50994 2 4.38276 2 4.25016C2 4.11755 2.05268 3.99037 2.14645 3.8966C2.24021 3.80283 2.36739 3.75016 2.5 3.75016H6.5C6.63261 3.75016 6.75979 3.80283 6.85355 3.8966C6.94732 3.99037 7 4.11755 7 4.25016ZM6.5 10.7502H5V9.25016C5 9.11755 4.94732 8.99037 4.85355 8.8966C4.75979 8.80283 4.63261 8.75016 4.5 8.75016C4.36739 8.75016 4.24021 8.80283 4.14645 8.8966C4.05268 8.99037 4 9.11755 4 9.25016V10.7502H2.5C2.36739 10.7502 2.24021 10.8028 2.14645 10.8966C2.05268 10.9904 2 11.1175 2 11.2502C2 11.3828 2.05268 11.5099 2.14645 11.6037C2.24021 11.6975 2.36739 11.7502 2.5 11.7502H4V13.2502C4 13.3828 4.05268 13.5099 4.14645 13.6037C4.24021 13.6975 4.36739 13.7502 4.5 13.7502C4.63261 13.7502 4.75979 13.6975 4.85355 13.6037C4.94732 13.5099 5 13.3828 5 13.2502V11.7502H6.5C6.63261 11.7502 6.75979 11.6975 6.85355 11.6037C6.94732 11.5099 7 11.3828 7 11.2502C7 11.1175 6.94732 10.9904 6.85355 10.8966C6.75979 10.8028 6.63261 10.7502 6.5 10.7502ZM9.5 10.7502H13.5C13.6326 10.7502 13.7598 10.6975 13.8536 10.6037C13.9473 10.5099 14 10.3828 14 10.2502C14 10.1175 13.9473 9.99037 13.8536 9.8966C13.7598 9.80283 13.6326 9.75016 13.5 9.75016H9.5C9.36739 9.75016 9.24021 9.80283 9.14645 9.8966C9.05268 9.99037 9 10.1175 9 10.2502C9 10.3828 9.05268 10.5099 9.14645 10.6037C9.24021 10.6975 9.36739 10.7502 9.5 10.7502ZM13.5 11.7502H9.5C9.36739 11.7502 9.24021 11.8028 9.14645 11.8966C9.05268 11.9904 9 12.1175 9 12.2502C9 12.3828 9.05268 12.5099 9.14645 12.6037C9.24021 12.6975 9.36739 12.7502 9.5 12.7502H13.5C13.6326 12.7502 13.7598 12.6975 13.8536 12.6037C13.9473 12.5099 14 12.3828 14 12.2502C14 12.1175 13.9473 11.9904 13.8536 11.8966C13.7598 11.8028 13.6326 11.7502 13.5 11.7502ZM9.64625 6.10391C9.69269 6.15039 9.74783 6.18727 9.80853 6.21244C9.86923 6.2376 9.93429 6.25055 10 6.25055C10.0657 6.25055 10.1308 6.2376 10.1915 6.21244C10.2522 6.18727 10.3073 6.15039 10.3538 6.10391L11.5 4.95703L12.6462 6.10391C12.6927 6.15036 12.7479 6.18721 12.8086 6.21235C12.8692 6.23749 12.9343 6.25043 13 6.25043C13.0657 6.25043 13.1308 6.23749 13.1914 6.21235C13.2521 6.18721 13.3073 6.15036 13.3538 6.10391C13.4002 6.05745 13.4371 6.0023 13.4622 5.9416C13.4873 5.88091 13.5003 5.81585 13.5003 5.75016C13.5003 5.68446 13.4873 5.6194 13.4622 5.55871C13.4371 5.49801 13.4002 5.44286 13.3538 5.39641L12.2069 4.25016L13.3538 3.10391C13.4476 3.01009 13.5003 2.88284 13.5003 2.75016C13.5003 2.61747 13.4476 2.49023 13.3538 2.39641C13.2599 2.30259 13.1327 2.24988 13 2.24988C12.8673 2.24988 12.7401 2.30259 12.6462 2.39641L11.5 3.54328L10.3538 2.39641C10.2599 2.30259 10.1327 2.24988 10 2.24988C9.86732 2.24988 9.74007 2.30259 9.64625 2.39641C9.55243 2.49023 9.49972 2.61747 9.49972 2.75016C9.49972 2.88284 9.55243 3.01009 9.64625 3.10391L10.7931 4.25016L9.64625 5.39641C9.59976 5.44284 9.56288 5.49799 9.53772 5.55869C9.51256 5.61938 9.49961 5.68445 9.49961 5.75016C9.49961 5.81586 9.51256 5.88093 9.53772 5.94163C9.56288 6.00233 9.59976 6.05747 9.64625 6.10391Z" fill="#155DFC"/>
</svg>
