<svg width="16" height="16" viewBox="0 0 16 16" fill="none" xmlns="http://www.w3.org/2000/svg">
<path d="M13.8668 5.1975C14.5606 6.64863 14.6923 8.30533 14.2365 9.84786C13.7807 11.3904 12.7696 12.7094 11.3985 13.5503C10.0274 14.3912 8.39333 14.6944 6.81177 14.4014C5.23022 14.1084 3.81325 13.24 2.83436 11.9637C1.85547 10.6874 1.38404 9.09372 1.51105 7.49027C1.63807 5.88683 2.35453 4.38727 3.52215 3.28101C4.68978 2.17474 6.2258 1.5402 7.83376 1.49985C9.44173 1.4595 11.0076 2.0162 12.2293 3.0625L13.6462 1.645C13.74 1.55118 13.8672 1.49848 13.9999 1.49848C14.1326 1.49848 14.2598 1.55118 14.3537 1.645C14.4475 1.73882 14.5002 1.86607 14.5002 1.99875C14.5002 2.13144 14.4475 2.25868 14.3537 2.3525L8.35366 8.3525C8.25984 8.44633 8.13259 8.49903 7.99991 8.49903C7.86723 8.49903 7.73998 8.44633 7.64616 8.3525C7.55234 8.25868 7.49963 8.13144 7.49963 7.99875C7.49963 7.86607 7.55234 7.73882 7.64616 7.645L9.37866 5.9125C8.90913 5.60198 8.34854 5.459 7.78764 5.50672C7.22674 5.55444 6.69836 5.79007 6.28804 6.17546C5.87772 6.56084 5.60948 7.07343 5.52673 7.63024C5.44399 8.18705 5.55158 8.7555 5.83211 9.24355C6.11263 9.7316 6.54966 10.1107 7.07244 10.3194C7.59523 10.5282 8.17317 10.5544 8.71271 10.3939C9.25224 10.2333 9.7218 9.89531 10.0454 9.43466C10.3689 8.97401 10.5275 8.41765 10.4955 7.85563C10.4918 7.78997 10.5011 7.72422 10.5228 7.66215C10.5445 7.60007 10.5783 7.54288 10.6221 7.49384C10.6659 7.4448 10.719 7.40487 10.7782 7.37633C10.8375 7.34779 10.9017 7.3312 10.9674 7.3275C11.1 7.32005 11.2302 7.36557 11.3292 7.45406C11.3782 7.49788 11.4182 7.55093 11.4467 7.61018C11.4753 7.66943 11.4918 7.73372 11.4955 7.79938C11.5411 8.59487 11.3139 9.3821 10.8515 10.031C10.389 10.6798 9.71902 11.1515 8.9522 11.368C8.18538 11.5844 7.36765 11.5328 6.63415 11.2216C5.90066 10.9103 5.29532 10.3581 4.91817 9.65627C4.54102 8.95439 4.41465 8.14483 4.55995 7.36139C4.70524 6.57796 5.1135 5.86755 5.71725 5.34758C6.32099 4.82762 7.08408 4.52921 7.8804 4.5017C8.67672 4.47418 9.45859 4.7192 10.0968 5.19625L11.5187 3.77438C10.4767 2.90925 9.15177 2.45961 7.79844 2.5118C6.44512 2.564 5.1588 3.11436 4.18653 4.05717C3.21426 4.99999 2.6246 6.26878 2.53081 7.61985C2.43702 8.97093 2.84571 10.309 3.67838 11.3771C4.51106 12.4453 5.709 13.1681 7.04213 13.4067C8.37526 13.6454 9.74958 13.3832 10.9011 12.6703C12.0527 11.9575 12.9002 10.8443 13.281 9.54459C13.6618 8.2449 13.549 6.85034 12.9643 5.62875C12.9071 5.50908 12.8998 5.37158 12.944 5.24652C12.9882 5.12145 13.0802 5.01907 13.1999 4.96188C13.3196 4.90469 13.4571 4.89739 13.5821 4.94158C13.7072 4.98577 13.8096 5.07783 13.8668 5.1975Z" fill="#C800DE"/>
</svg>
